# Blender 4.5.0
# www.blender.org
mtllib piper.mtl
o Cylinder
v 0.000000 -3.277664 -1.300000
v 0.000000 3.277664 -1.300000
v 0.497488 -3.277664 -1.201043
v 0.497488 3.277664 -1.201043
v 0.919239 -3.277664 -0.919239
v 0.919239 3.277664 -0.919239
v 1.201043 -3.277664 -0.497488
v 1.201043 3.277664 -0.497488
v 1.300000 -3.277664 0.000000
v 1.300000 3.277664 0.000000
v 1.201043 -3.277664 0.497488
v 1.201043 3.277664 0.497488
v 0.919239 -3.277664 0.919239
v 0.919239 3.277664 0.919239
v 0.497488 -3.277664 1.201043
v 0.497488 3.277664 1.201043
v 0.000000 -3.277664 1.300000
v 0.000000 3.277664 1.300000
v -0.497488 -3.277664 1.201043
v -0.497488 3.277664 1.201043
v -0.919239 -3.277664 0.919239
v -0.919239 3.277664 0.919239
v -1.201043 -3.277664 0.497488
v -1.201043 3.277664 0.497488
v -1.300000 -3.277664 0.000000
v -1.300000 3.277664 0.000000
v -1.201043 -3.277664 -0.497488
v -1.201043 3.277664 -0.497488
v -0.919239 -3.277664 -0.919239
v -0.919239 3.277664 -0.919239
v -0.497488 -3.277664 -1.201043
v -0.497488 3.277664 -1.201043
v 0.000000 1.974537 -1.300000
v 0.497488 1.974537 -1.201043
v 0.919239 1.974537 -0.919239
v 1.201043 1.974537 -0.497488
v 1.300000 1.974537 0.000000
v 1.201043 1.974537 0.497488
v 0.919239 1.974537 0.919239
v 0.497488 1.974537 1.201043
v 0.000000 1.974537 1.300000
v -0.497488 1.974537 1.201043
v -0.919239 1.974537 0.919239
v -1.201043 1.974537 0.497488
v -1.300000 1.974537 0.000000
v -1.201043 1.974537 -0.497488
v -0.919239 1.974537 -0.919239
v -0.497488 1.974537 -1.201043
v 0.768040 3.277664 -1.854213
v 0.000000 3.277664 -2.006985
v 0.000000 1.974537 -2.006985
v 1.419153 3.277664 -1.419153
v 1.854213 3.277664 -0.768040
v 2.006985 3.277664 0.000000
v 1.854213 3.277664 0.768040
v 1.419153 3.277664 1.419153
v 0.768040 3.277664 1.854213
v 0.000000 3.277664 2.006985
v -0.768040 3.277664 1.854213
v -1.419153 3.277664 1.419153
v -1.854213 3.277664 0.768040
v -2.006985 3.277664 0.000000
v -1.854213 3.277664 -0.768040
v -1.419153 3.277664 -1.419153
v -0.768040 3.277664 -1.854213
v 0.768040 1.974537 -1.854213
v 1.419153 1.974537 -1.419153
v 1.854213 1.974537 -0.768040
v 2.006985 1.974537 0.000000
v 1.854213 1.974537 0.768040
v 1.419153 1.974537 1.419153
v 0.768040 1.974537 1.854213
v 0.000000 1.974537 2.006985
v -0.768040 1.974537 1.854213
v -1.419153 1.974537 1.419153
v -1.854213 1.974537 0.768040
v -2.006985 1.974537 0.000000
v -1.854213 1.974537 -0.768040
v -1.419153 1.974537 -1.419153
v -0.768040 1.974537 -1.854213
v 0.497489 2.468880 -1.201043
v 0.000000 2.468880 -1.300000
v 0.919239 2.468880 -0.919239
v 1.201043 2.468880 -0.497488
v 1.300000 2.468880 0.000000
v 1.201043 2.468880 0.497488
v 0.919239 2.468880 0.919239
v 0.497489 2.468880 1.201043
v 0.000000 2.468880 1.300000
v -0.497488 2.468880 1.201043
v -0.919239 2.468880 0.919239
v -1.201043 2.468880 0.497488
v -1.300000 2.468880 0.000000
v -1.201043 2.468880 -0.497488
v -0.919239 2.468880 -0.919239
v -0.497488 2.468880 -1.201043
vn -0.0000 1.0000 -0.0000
vn -0.0000 -1.0000 -0.0000
vn -0.8315 -0.0000 -0.5556
vn -0.1951 -0.0000 -0.9808
vn -0.5556 -0.0000 -0.8315
vn -0.9808 -0.0000 -0.1951
vn -0.9808 -0.0000 0.1951
vn -0.8315 -0.0000 0.5556
vn -0.5556 -0.0000 0.8315
vn -0.1951 -0.0000 0.9808
vn 0.1951 -0.0000 0.9808
vn 0.5556 -0.0000 0.8315
vn 0.8315 -0.0000 0.5556
vn 0.9808 -0.0000 0.1951
vn 0.9808 -0.0000 -0.1951
vn 0.8315 -0.0000 -0.5556
vn 0.5556 -0.0000 -0.8315
vn 0.1951 -0.0000 -0.9808
s 0
usemtl Material.001
f 24//1 26//1 62//1 61//1
f 6//1 8//1 53//1 52//1
f 38//2 37//2 69//2 70//2
f 39//2 38//2 70//2 71//2
f 32//1 2//1 50//1 65//1
f 14//1 16//1 57//1 56//1
f 40//2 39//2 71//2 72//2
f 22//1 24//1 61//1 60//1
f 4//1 6//1 52//1 49//1
f 41//2 40//2 72//2 73//2
f 42//2 41//2 73//2 74//2
f 30//1 32//1 65//1 64//1
f 12//1 14//1 56//1 55//1
f 43//2 42//2 74//2 75//2
f 14//3 12//3 86//3 87//3
f 20//1 22//1 60//1 59//1
f 44//2 43//2 75//2 76//2
f 1//2 3//2 5//2 7//2 9//2 11//2 13//2 15//2 17//2 19//2 21//2 23//2 25//2 27//2 29//2 31//2
f 31//4 48//4 33//4 1//4
f 29//5 47//5 48//5 31//5
f 27//3 46//3 47//3 29//3
f 25//6 45//6 46//6 27//6
f 23//7 44//7 45//7 25//7
f 21//8 43//8 44//8 23//8
f 19//9 42//9 43//9 21//9
f 17//10 41//10 42//10 19//10
f 15//11 40//11 41//11 17//11
f 13//12 39//12 40//12 15//12
f 11//13 38//13 39//13 13//13
f 9//14 37//14 38//14 11//14
f 7//15 36//15 37//15 9//15
f 5//16 35//16 36//16 7//16
f 3//17 34//17 35//17 5//17
f 1//18 33//18 34//18 3//18
f 51//18 50//18 49//18 66//18
f 66//17 49//17 52//17 67//17
f 67//16 52//16 53//16 68//16
f 68//15 53//15 54//15 69//15
f 69//14 54//14 55//14 70//14
f 70//13 55//13 56//13 71//13
f 71//12 56//12 57//12 72//12
f 72//11 57//11 58//11 73//11
f 73//10 58//10 59//10 74//10
f 74//9 59//9 60//9 75//9
f 75//8 60//8 61//8 76//8
f 76//7 61//7 62//7 77//7
f 77//6 62//6 63//6 78//6
f 78//3 63//3 64//3 79//3
f 79//5 64//5 65//5 80//5
f 80//4 65//4 50//4 51//4
f 37//2 36//2 68//2 69//2
f 16//1 18//1 58//1 57//1
f 36//2 35//2 67//2 68//2
f 33//2 48//2 80//2 51//2
f 35//2 34//2 66//2 67//2
f 8//1 10//1 54//1 53//1
f 26//1 28//1 63//1 62//1
f 48//2 47//2 79//2 80//2
f 34//2 33//2 51//2 66//2
f 47//2 46//2 78//2 79//2
f 18//1 20//1 59//1 58//1
f 46//2 45//2 77//2 78//2
f 10//1 12//1 55//1 54//1
f 28//1 30//1 64//1 63//1
f 45//2 44//2 76//2 77//2
f 2//1 4//1 49//1 50//1
f 81//1 82//1 96//1 95//1 94//1 93//1 92//1 91//1 90//1 89//1 88//1 87//1 86//1 85//1 84//1 83//1
f 24//16 22//16 91//16 92//16
f 2//11 32//11 96//11 82//11
f 10//7 8//7 84//7 85//7
f 20//18 18//18 89//18 90//18
f 30//13 28//13 94//13 95//13
f 6//9 4//9 81//9 83//9
f 16//5 14//5 87//5 88//5
f 26//15 24//15 92//15 93//15
f 12//6 10//6 85//6 86//6
f 22//17 20//17 90//17 91//17
f 32//12 30//12 95//12 96//12
f 8//8 6//8 83//8 84//8
f 18//4 16//4 88//4 89//4
f 4//10 2//10 82//10 81//10
f 28//14 26//14 93//14 94//14
